<svg width="102" height="104" viewBox="0 0 102 104" xmlns="http://www.w3.org/2000/svg"><path d="M5.288 51.55C-4.796 67.512-.028 88.63 15.936 98.71c15.964 10.085 37.08 5.317 47.163-10.647 10.084-15.964 5.316-37.08-10.65-47.163-15.962-10.082-37.077-5.315-47.16 10.65" fill="#F5BD7B"/><path d="M41.07 64.412c2.277-3.605 7.062-4.685 10.668-2.408 3.605 2.277 4.686 7.063 2.408 10.667-2.277 3.606-7.063 4.688-10.668 2.41-3.605-2.278-4.685-7.064-2.408-10.669Zm6.552-4.6a8.738 8.738 0 0 0-7.398 4.067c-2.571 4.07-1.351 9.476 2.72 12.047 4.072 2.572 9.476 1.352 12.048-2.72 2.57-4.07 1.35-9.477-2.721-12.048a8.678 8.678 0 0 0-4.65-1.346Z" fill="#121E25"/><path d="m56.614 54.282-.533.846c7.396 4.671 9.613 14.49 4.94 21.886-4.67 7.396-14.491 9.612-21.885 4.941-7.397-4.67-9.614-14.489-4.942-21.886l-.845-.534c-4.966 7.863-2.61 18.3 5.253 23.266 7.864 4.966 18.3 2.61 23.266-5.253 4.966-7.863 2.61-18.3-5.254-23.266" fill="#121E25"/><path d="M47.669 40.693c-9.423 0-18.45 4.815-23.606 12.977-8.2 12.983-4.31 30.216 8.674 38.417 12.98 8.198 30.215 4.31 38.416-8.674l-.845-.534c-7.906 12.515-24.52 16.267-37.037 8.362-12.517-7.906-16.268-24.52-8.362-37.037 5.97-9.454 17.33-14.252 28.267-11.934l.207-.979a27.555 27.555 0 0 0-5.714-.598" fill="#121E25"/><path d="M47.664 33.667c-11.581 0-22.921 5.751-29.55 16.246-3.918 6.203-5.762 13.341-5.334 20.642l.998-.059c-.416-7.09 1.376-14.024 5.182-20.049 9.978-15.797 30.945-20.53 46.743-10.553 15.796 9.977 20.53 30.946 10.553 46.742-4.833 7.652-12.357 12.964-21.186 14.957-8.827 1.992-17.904.43-25.556-4.404l-.535.846c7.878 4.976 17.222 6.586 26.312 4.534 9.089-2.052 16.835-7.52 21.81-15.399C87.374 70.908 82.5 49.321 66.237 39.048a34.677 34.677 0 0 0-18.572-5.38" fill="#121E25"/><path d="m90.373 2.426 5.964-.868 3.734 4.731-2.23 5.6-5.964.868-3.734-4.73 2.23-5.6Zm6.391-1.94L89.657 1.52 87 8.192l4.449 5.637 7.107-1.034 2.658-6.672-4.45-5.637Z" fill="#736AA1"/></svg>