<svg width="102" height="102" viewBox="0 0 102 102" fill="none" xmlns="http://www.w3.org/2000/svg"><path d="M51 2c13.531 0 25.781 5.485 34.648 14.352C94.515 25.219 100 37.469 100 51c0 13.531-5.485 25.781-14.352 34.648C76.781 94.515 64.531 100 51 100c-13.531 0-25.781-5.485-34.648-14.352C7.485 76.781 2 64.531 2 51c0-13.531 5.485-25.781 14.352-34.648C25.219 7.485 37.469 2 51 2Zm0 26a22.927 22.927 0 0 0-16.263 6.737A22.926 22.926 0 0 0 28 51a22.927 22.927 0 0 0 6.737 16.263A22.926 22.926 0 0 0 51 74a22.927 22.927 0 0 0 16.263-6.737A22.926 22.926 0 0 0 74 51a22.927 22.927 0 0 0-6.737-16.263A22.926 22.926 0 0 0 51 28Z" stroke="#499FB6" stroke-width="4"/><mask id="a" style="mask-type:alpha" maskUnits="userSpaceOnUse" x="1" y="1" width="100" height="100"><path d="M51 2c13.531 0 25.781 5.485 34.648 14.352C94.515 25.219 100 37.469 100 51c0 13.531-5.485 25.781-14.352 34.648C76.781 94.515 64.531 100 51 100c-13.531 0-25.781-5.485-34.648-14.352C7.485 76.781 2 64.531 2 51c0-13.531 5.485-25.781 14.352-34.648C25.219 7.485 37.469 2 51 2Zm0 26a22.927 22.927 0 0 0-16.263 6.737A22.926 22.926 0 0 0 28 51a22.927 22.927 0 0 0 6.737 16.263A22.926 22.926 0 0 0 51 74a22.927 22.927 0 0 0 16.263-6.737A22.926 22.926 0 0 0 74 51a22.927 22.927 0 0 0-6.737-16.263A22.926 22.926 0 0 0 51 28Z" fill="#fff" stroke="#F5BD7B" stroke-width="2"/></mask><g mask="url(#a)" fill="#60A3BC" fill-opacity=".72"><path d="M13.778 30.8a3.233 3.233 0 1 0 0-6.467 3.233 3.233 0 0 0 0 6.467ZM28.867 30.8a3.233 3.233 0 1 0 0-6.467 3.233 3.233 0 0 0 0 6.467ZM43.956 30.8a3.233 3.233 0 1 0 0-6.467 3.233 3.233 0 0 0 0 6.467ZM59.044 30.8a3.233 3.233 0 1 0 0-6.467 3.233 3.233 0 0 0 0 6.467ZM74.133 30.8a3.233 3.233 0 1 0 0-6.467 3.233 3.233 0 0 0 0 6.467ZM89.222 30.8a3.233 3.233 0 1 0 0-6.467 3.233 3.233 0 0 0 0 6.467ZM21.322 20.022a3.233 3.233 0 1 0 0-6.466 3.233 3.233 0 0 0 0 6.466ZM36.411 20.022a3.233 3.233 0 1 0 0-6.466 3.233 3.233 0 0 0 0 6.466ZM51.5 20.022a3.233 3.233 0 1 0 0-6.466 3.233 3.233 0 0 0 0 6.466ZM66.589 20.022a3.233 3.233 0 1 0 0-6.466 3.233 3.233 0 0 0 0 6.466ZM81.678 20.022a3.233 3.233 0 1 0 0-6.466 3.233 3.233 0 0 0 0 6.466ZM96.766 20.022a3.233 3.233 0 1 0 0-6.466 3.233 3.233 0 0 0 0 6.466ZM6.233 20.022a3.233 3.233 0 1 0 0-6.466 3.233 3.233 0 0 0 0 6.466ZM13.778 9.244a3.233 3.233 0 1 0 0-6.467 3.233 3.233 0 0 0 0 6.467ZM28.867 9.244a3.233 3.233 0 1 0 0-6.467 3.233 3.233 0 0 0 0 6.467ZM43.956 9.244a3.233 3.233 0 1 0 0-6.467 3.233 3.233 0 0 0 0 6.467ZM59.044 9.244a3.233 3.233 0 1 0 0-6.467 3.233 3.233 0 0 0 0 6.467ZM74.133 9.244a3.233 3.233 0 1 0 0-6.467 3.233 3.233 0 0 0 0 6.467ZM89.222 9.244a3.233 3.233 0 1 0 0-6.467 3.233 3.233 0 0 0 0 6.467ZM13.778 73.911a3.233 3.233 0 1 0 0-6.467 3.233 3.233 0 0 0 0 6.467ZM28.867 73.911a3.233 3.233 0 1 0 0-6.467 3.233 3.233 0 0 0 0 6.467ZM43.956 73.911a3.233 3.233 0 1 0 0-6.467 3.233 3.233 0 0 0 0 6.467ZM59.044 73.911a3.233 3.233 0 1 0 0-6.467 3.233 3.233 0 0 0 0 6.467ZM74.133 73.911a3.233 3.233 0 1 0 0-6.467 3.233 3.233 0 0 0 0 6.467ZM89.222 73.911a3.233 3.233 0 1 0 0-6.467 3.233 3.233 0 0 0 0 6.467ZM21.322 63.134a3.233 3.233 0 1 0 0-6.467 3.233 3.233 0 0 0 0 6.467ZM36.411 63.134a3.233 3.233 0 1 0 0-6.467 3.233 3.233 0 0 0 0 6.467ZM51.5 63.134a3.233 3.233 0 1 0 0-6.467 3.233 3.233 0 0 0 0 6.467ZM66.589 63.134a3.233 3.233 0 1 0 0-6.467 3.233 3.233 0 0 0 0 6.467ZM81.678 63.134a3.233 3.233 0 1 0 0-6.467 3.233 3.233 0 0 0 0 6.467ZM96.766 63.134a3.233 3.233 0 1 0 0-6.467 3.233 3.233 0 0 0 0 6.467ZM6.233 63.134a3.233 3.233 0 1 0 0-6.467 3.233 3.233 0 0 0 0 6.467ZM13.778 52.355a3.233 3.233 0 1 0 0-6.466 3.233 3.233 0 0 0 0 6.466ZM28.867 52.355a3.233 3.233 0 1 0 0-6.466 3.233 3.233 0 0 0 0 6.466ZM43.956 52.355a3.233 3.233 0 1 0 0-6.466 3.233 3.233 0 0 0 0 6.466ZM59.044 52.355a3.233 3.233 0 1 0 0-6.466 3.233 3.233 0 0 0 0 6.466ZM74.133 52.355a3.233 3.233 0 1 0 0-6.466 3.233 3.233 0 0 0 0 6.466ZM89.222 52.355a3.233 3.233 0 1 0 0-6.466 3.233 3.233 0 0 0 0 6.466ZM21.322 41.578a3.233 3.233 0 1 0 0-6.467 3.233 3.233 0 0 0 0 6.467ZM36.411 41.578a3.233 3.233 0 1 0 0-6.467 3.233 3.233 0 0 0 0 6.467ZM51.5 41.578a3.233 3.233 0 1 0 0-6.467 3.233 3.233 0 0 0 0 6.467ZM66.589 41.578a3.233 3.233 0 1 0 0-6.467 3.233 3.233 0 0 0 0 6.467ZM81.678 41.578a3.233 3.233 0 1 0 0-6.467 3.233 3.233 0 0 0 0 6.467ZM96.766 41.578a3.233 3.233 0 1 0 0-6.467 3.233 3.233 0 0 0 0 6.467ZM6.233 41.578a3.233 3.233 0 1 0 0-6.467 3.233 3.233 0 0 0 0 6.467ZM21.322 106.244a3.233 3.233 0 1 0 0-6.467 3.233 3.233 0 0 0 0 6.467ZM36.411 106.244a3.233 3.233 0 1 0 0-6.467 3.233 3.233 0 0 0 0 6.467ZM51.5 106.244a3.234 3.234 0 1 0 0-6.467 3.234 3.234 0 0 0 0 6.467ZM66.589 106.244a3.233 3.233 0 1 0 0-6.467 3.233 3.233 0 0 0 0 6.467ZM81.678 106.244a3.233 3.233 0 1 0 0-6.467 3.233 3.233 0 0 0 0 6.467ZM96.766 106.244a3.234 3.234 0 1 0 0-6.467 3.234 3.234 0 0 0 0 6.467ZM6.233 106.244a3.234 3.234 0 1 0 0-6.467 3.234 3.234 0 0 0 0 6.467ZM13.778 95.467a3.233 3.233 0 1 0 0-6.467 3.233 3.233 0 0 0 0 6.467ZM28.867 95.467a3.233 3.233 0 1 0 0-6.467 3.233 3.233 0 0 0 0 6.467ZM43.956 95.467a3.233 3.233 0 1 0 0-6.467 3.233 3.233 0 0 0 0 6.467ZM59.044 95.467a3.233 3.233 0 1 0 0-6.467 3.233 3.233 0 0 0 0 6.467ZM74.133 95.467a3.233 3.233 0 1 0 0-6.467 3.233 3.233 0 0 0 0 6.467ZM89.222 95.467a3.233 3.233 0 1 0 0-6.467 3.233 3.233 0 0 0 0 6.467ZM21.322 84.69a3.233 3.233 0 1 0 0-6.467 3.233 3.233 0 0 0 0 6.466ZM36.411 84.69a3.233 3.233 0 1 0 0-6.467 3.233 3.233 0 0 0 0 6.466ZM51.5 84.69a3.233 3.233 0 1 0 0-6.467 3.233 3.233 0 0 0 0 6.466ZM66.589 84.69a3.233 3.233 0 1 0 0-6.467 3.233 3.233 0 0 0 0 6.466ZM81.678 84.69a3.233 3.233 0 1 0 0-6.467 3.233 3.233 0 0 0 0 6.466ZM96.766 84.69a3.233 3.233 0 1 0 0-6.467 3.233 3.233 0 0 0 0 6.466ZM6.233 84.69a3.233 3.233 0 1 0 0-6.467 3.233 3.233 0 0 0 0 6.466Z"/></g></svg>