<svg width="84" height="60" viewBox="0 0 84 60" xmlns="http://www.w3.org/2000/svg"><g fill-rule="nonzero" fill="none"><path fill="#736AA1" d="M0 59.935h73.349V12.15H0z"/><path d="m24.048 42.883-1.817 1.816-1.816-1.816-1.339 1.338 1.817 1.817-1.817 1.817 1.339 1.338 1.816-1.816 1.817 1.816 1.339-1.338-1.817-1.817 1.817-1.817-1.339-1.338m0-14.294-1.817 1.816-1.816-1.816-1.339 1.338 1.817 1.817-1.817 1.816 1.339 1.339 1.816-1.816 1.817 1.816 1.339-1.339-1.817-1.816 1.817-1.817-1.339-1.338m0-14.294-1.817 1.816-1.816-1.816-1.339 1.338 1.817 1.817-1.817 1.816 1.339 1.339 1.816-1.816 1.817 1.816 1.339-1.339-1.817-1.816 1.817-1.817-1.339-1.338" fill="#FFFFFE"/><path fill="#121E25" d="m24.048 0-1.817 1.817L20.415 0l-1.339 1.339 1.817 1.816-1.817 1.817 1.339 1.339 1.816-1.817 1.817 1.817 1.339-1.339-1.817-1.817 1.817-1.816L24.048 0"/><path d="m39.623 42.883-1.817 1.816-1.817-1.816-1.339 1.338 1.817 1.817-1.817 1.817 1.339 1.338 1.817-1.816 1.817 1.816 1.338-1.338-1.816-1.817 1.816-1.817-1.338-1.338m0-14.294-1.817 1.816-1.817-1.816-1.339 1.338 1.817 1.817-1.817 1.816 1.339 1.339 1.817-1.816 1.817 1.816 1.338-1.339-1.816-1.816 1.816-1.817-1.338-1.338m0-14.294-1.817 1.816-1.817-1.816-1.339 1.338 1.817 1.817-1.817 1.816 1.339 1.339 1.817-1.816 1.817 1.816 1.338-1.339-1.816-1.816 1.816-1.817-1.338-1.338" fill="#FFFFFE"/><path fill="#121E25" d="m39.623 0-1.817 1.817L35.989 0 34.65 1.339l1.817 1.816-1.817 1.817 1.339 1.339 1.817-1.817 1.817 1.817 1.338-1.339-1.816-1.817 1.816-1.816L39.623 0"/><path d="m54.049 42.883-1.817 1.816-1.817-1.816-1.338 1.338 1.816 1.817-1.816 1.817 1.338 1.338 1.817-1.816 1.817 1.816 1.338-1.338-1.816-1.817 1.816-1.817-1.338-1.338m0-14.294-1.817 1.816-1.817-1.816-1.338 1.338 1.816 1.817-1.816 1.816 1.338 1.339 1.817-1.816 1.817 1.816 1.338-1.339-1.816-1.816 1.816-1.817-1.338-1.338m0-14.294-1.817 1.816-1.817-1.816-1.338 1.338 1.816 1.817-1.816 1.816 1.338 1.339 1.817-1.816 1.817 1.816 1.338-1.339-1.816-1.816 1.816-1.817-1.338-1.338" fill="#FFFFFE"/><path fill="#121E25" d="m54.049 0-1.817 1.817L50.415 0l-1.338 1.339 1.816 1.816-1.816 1.817 1.338 1.339 1.817-1.817 1.817 1.817 1.338-1.339-1.816-1.817 1.816-1.816L54.049 0"/><path d="m69.623 42.883-1.817 1.816-1.817-1.816-1.338 1.338 1.816 1.817-1.816 1.817 1.338 1.338 1.817-1.816 1.817 1.816 1.338-1.338-1.816-1.817 1.816-1.817-1.338-1.338m0-14.294-1.817 1.816-1.817-1.816-1.338 1.338 1.816 1.817-1.816 1.816 1.338 1.339 1.817-1.816 1.817 1.816 1.338-1.339-1.816-1.816 1.816-1.817-1.338-1.338m0-14.294-1.817 1.816-1.817-1.816-1.338 1.338 1.816 1.817-1.816 1.816 1.338 1.339 1.817-1.816 1.817 1.816 1.338-1.339-1.816-1.816 1.816-1.817-1.338-1.338" fill="#FFFFFE"/><path d="m69.623 0-1.817 1.817L65.989 0l-1.338 1.339 1.816 1.816-1.816 1.817 1.338 1.339 1.817-1.817 1.817 1.817 1.338-1.339-1.816-1.817 1.816-1.816L69.623 0m12.89 42.883-1.817 1.816-1.817-1.816-1.338 1.338 1.816 1.817-1.816 1.817 1.338 1.338 1.817-1.816 1.817 1.816 1.339-1.338-1.817-1.817 1.817-1.817-1.339-1.338m0-14.294-1.817 1.816-1.817-1.816-1.338 1.338 1.816 1.817-1.816 1.816 1.338 1.339 1.817-1.816 1.817 1.816 1.339-1.339-1.817-1.816 1.817-1.817-1.339-1.338m0-14.294-1.817 1.816-1.817-1.816-1.338 1.338 1.816 1.817-1.816 1.816 1.338 1.339 1.817-1.816 1.817 1.816 1.339-1.339-1.817-1.816 1.817-1.817-1.339-1.338m0-14.295-1.817 1.817L78.879 0l-1.338 1.339 1.816 1.816-1.816 1.817 1.338 1.339 1.817-1.817 1.817 1.817 1.339-1.339-1.817-1.817 1.817-1.816L82.513 0" fill="#121E25"/></g></svg>