<svg width="115" height="116" viewBox="0 0 115 116" xmlns="http://www.w3.org/2000/svg"><g fill-rule="nonzero" fill="none"><path fill="#F5BD7B" d="M67.085 81.61 41.781 56.304 67.085 31l25.306 25.304L67.085 81.61"/><path d="m34.41 90.752-1.68-.277.694-4.213a7.03 7.03 0 0 1 5.835-5.804l.858-.137a5.342 5.342 0 0 0 4.413-4.342 7.03 7.03 0 0 1 5.885-5.736l.743-.113a5.34 5.34 0 0 0 4.452-4.292l.025-.139a7.035 7.035 0 0 1 5.939-5.671l.624-.088a5.34 5.34 0 0 0 4.49-4.244l.055-.275a7.036 7.036 0 0 1 5.992-5.607l.501-.065a5.341 5.341 0 0 0 4.53-4.198l.085-.405a7.034 7.034 0 0 1 6.047-5.545l.373-.045a5.34 5.34 0 0 0 4.573-4.152l1.07-4.865 1.662.365-1.07 4.865a7.046 7.046 0 0 1-6.032 5.478l-.372.045a5.33 5.33 0 0 0-4.584 4.204l-.086.404a7.046 7.046 0 0 1-5.976 5.537l-.501.065a5.33 5.33 0 0 0-4.542 4.251l-.055.275a7.043 7.043 0 0 1-5.923 5.598l-.625.087a5.334 5.334 0 0 0-4.501 4.3l-.026.14a7.044 7.044 0 0 1-5.871 5.661l-.744.112a5.328 5.328 0 0 0-4.461 4.349 7.044 7.044 0 0 1-5.822 5.727l-.857.136a5.33 5.33 0 0 0-4.423 4.401l-.695 4.213m7.503 8.158-1.68-.277.695-4.214a7.027 7.027 0 0 1 5.834-5.803l.859-.137a5.338 5.338 0 0 0 4.412-4.342 7.032 7.032 0 0 1 5.885-5.737l.744-.111a5.341 5.341 0 0 0 4.451-4.292l.026-.14a7.031 7.031 0 0 1 5.938-5.671l.624-.089a5.34 5.34 0 0 0 4.491-4.244l.055-.273a7.032 7.032 0 0 1 5.991-5.608l.501-.066a5.341 5.341 0 0 0 4.531-4.197l.084-.404a7.037 7.037 0 0 1 6.048-5.547l.373-.045a5.338 5.338 0 0 0 4.572-4.151l1.069-4.866 1.663.365-1.07 4.865a7.043 7.043 0 0 1-6.031 5.478l-.374.045a5.334 5.334 0 0 0-4.583 4.205l-.085.403a7.045 7.045 0 0 1-5.977 5.537l-.501.066a5.334 5.334 0 0 0-4.542 4.252l-.054.273a7.044 7.044 0 0 1-5.924 5.599l-.624.088a5.328 5.328 0 0 0-4.501 4.298l-.026.14a7.045 7.045 0 0 1-5.872 5.662l-.745.112a5.329 5.329 0 0 0-4.461 4.349 7.044 7.044 0 0 1-5.82 5.727l-.858.136a5.33 5.33 0 0 0-4.423 4.401l-.695 4.213m7.503 8.158-1.68-.277.695-4.213a7.03 7.03 0 0 1 5.834-5.805l.859-.137a5.336 5.336 0 0 0 4.412-4.342 7.032 7.032 0 0 1 5.885-5.736l.744-.112a5.34 5.34 0 0 0 4.451-4.292l.026-.14a7.035 7.035 0 0 1 5.938-5.671l.625-.088a5.34 5.34 0 0 0 4.49-4.244l.055-.274a7.034 7.034 0 0 1 5.991-5.608l.501-.065a5.339 5.339 0 0 0 4.531-4.197l.085-.406a7.032 7.032 0 0 1 6.047-5.544l.372-.045a5.341 5.341 0 0 0 4.574-4.153l1.068-4.865 1.664.365-1.07 4.866a7.045 7.045 0 0 1-6.032 5.477l-.373.045a5.33 5.33 0 0 0-4.584 4.204l-.085.404a7.044 7.044 0 0 1-5.977 5.537l-.501.066a5.333 5.333 0 0 0-4.542 4.251l-.054.273a7.044 7.044 0 0 1-5.923 5.599l-.625.088a5.331 5.331 0 0 0-4.501 4.3l-.026.138a7.044 7.044 0 0 1-5.873 5.662l-.743.112a5.336 5.336 0 0 0-4.462 4.349 7.039 7.039 0 0 1-5.82 5.727l-.858.138a5.328 5.328 0 0 0-4.423 4.399l-.695 4.214m7.503 8.158-1.68-.277.695-4.214a7.034 7.034 0 0 1 5.834-5.805l.859-.136a5.34 5.34 0 0 0 4.413-4.341 7.032 7.032 0 0 1 5.885-5.738l.743-.111a5.34 5.34 0 0 0 4.452-4.293l.026-.14a7.033 7.033 0 0 1 5.937-5.67l.625-.087a5.342 5.342 0 0 0 4.491-4.246l.053-.273a7.036 7.036 0 0 1 5.993-5.608l.501-.065a5.34 5.34 0 0 0 4.53-4.198l.085-.403a7.032 7.032 0 0 1 6.047-5.546l.373-.045a5.344 5.344 0 0 0 4.573-4.153l1.068-4.866 1.663.366-1.069 4.866a7.042 7.042 0 0 1-6.032 5.476l-.372.045a5.335 5.335 0 0 0-4.585 4.205l-.084.404a7.046 7.046 0 0 1-5.978 5.537l-.501.065a5.334 5.334 0 0 0-4.542 4.251l-.053.275a7.047 7.047 0 0 1-5.924 5.598l-.625.088a5.331 5.331 0 0 0-4.501 4.3l-.027.14a7.04 7.04 0 0 1-5.871 5.66l-.743.112a5.33 5.33 0 0 0-4.462 4.35 7.041 7.041 0 0 1-5.821 5.726l-.858.137a5.329 5.329 0 0 0-4.422 4.4l-.696 4.214M1.68 60.212 0 59.936l.695-4.213a7.033 7.033 0 0 1 5.834-5.805l.858-.136A5.338 5.338 0 0 0 11.8 45.44a7.033 7.033 0 0 1 5.885-5.736l.744-.113a5.339 5.339 0 0 0 4.451-4.292l.026-.139a7.034 7.034 0 0 1 5.938-5.671l.624-.088a5.343 5.343 0 0 0 4.491-4.244l.054-.273a7.036 7.036 0 0 1 5.992-5.609l.5-.065a5.342 5.342 0 0 0 4.532-4.199l.085-.403a7.032 7.032 0 0 1 6.046-5.546l.373-.045a5.34 5.34 0 0 0 4.574-4.152L57.183 0l1.663.364-1.069 4.866a7.047 7.047 0 0 1-6.032 5.478l-.372.044a5.33 5.33 0 0 0-4.584 4.205l-.085.404a7.048 7.048 0 0 1-5.978 5.537l-.501.065a5.332 5.332 0 0 0-4.542 4.251l-.054.274a7.045 7.045 0 0 1-5.923 5.598l-.625.088a5.332 5.332 0 0 0-4.501 4.3l-.027.14a7.043 7.043 0 0 1-5.871 5.661l-.744.111a5.331 5.331 0 0 0-4.461 4.35 7.04 7.04 0 0 1-5.821 5.726l-.859.138A5.329 5.329 0 0 0 2.375 56l-.695 4.212m7.503 8.159-1.68-.277.696-4.214a7.028 7.028 0 0 1 5.834-5.803l.858-.137a5.34 5.34 0 0 0 4.412-4.342 7.032 7.032 0 0 1 5.886-5.736l.743-.112a5.342 5.342 0 0 0 4.451-4.292l.027-.14a7.03 7.03 0 0 1 5.937-5.671l.624-.088a5.34 5.34 0 0 0 4.491-4.244l.054-.274a7.038 7.038 0 0 1 5.992-5.609l.501-.064a5.343 5.343 0 0 0 4.532-4.199l.084-.404a7.035 7.035 0 0 1 6.047-5.545l.372-.045a5.341 5.341 0 0 0 4.574-4.152l1.069-4.866 1.662.365-1.069 4.866a7.044 7.044 0 0 1-6.032 5.477l-.373.045a5.333 5.333 0 0 0-4.584 4.205l-.084.404a7.046 7.046 0 0 1-5.977 5.536l-.501.066a5.331 5.331 0 0 0-4.542 4.251l-.055.274a7.044 7.044 0 0 1-5.924 5.599l-.624.088a5.329 5.329 0 0 0-4.501 4.299l-.026.139a7.045 7.045 0 0 1-5.872 5.662l-.743.111a5.33 5.33 0 0 0-4.462 4.35 7.044 7.044 0 0 1-5.821 5.727l-.858.136a5.331 5.331 0 0 0-4.423 4.401l-.695 4.213m7.504 8.158-1.681-.277.696-4.213a7.027 7.027 0 0 1 5.834-5.804l.858-.138a5.338 5.338 0 0 0 4.413-4.342 7.03 7.03 0 0 1 5.885-5.736l.744-.111a5.34 5.34 0 0 0 4.45-4.293l.027-.139a7.034 7.034 0 0 1 5.937-5.672l.625-.088a5.34 5.34 0 0 0 4.49-4.244l.055-.273a7.035 7.035 0 0 1 5.991-5.609l.501-.065a5.34 5.34 0 0 0 4.531-4.197l.084-.404a7.036 7.036 0 0 1 6.048-5.546l.372-.044a5.346 5.346 0 0 0 4.574-4.154l1.069-4.865 1.663.365-1.069 4.865a7.047 7.047 0 0 1-6.033 5.478l-.372.045a5.334 5.334 0 0 0-4.585 4.205l-.084.403a7.046 7.046 0 0 1-5.977 5.537l-.501.066a5.331 5.331 0 0 0-4.542 4.251l-.055.274a7.047 7.047 0 0 1-5.923 5.599l-.625.087a5.332 5.332 0 0 0-4.501 4.3l-.026.139a7.043 7.043 0 0 1-5.871 5.661l-.744.113a5.328 5.328 0 0 0-4.461 4.348 7.044 7.044 0 0 1-5.821 5.727l-.859.138a5.327 5.327 0 0 0-4.422 4.399l-.695 4.214m7.503 8.157-1.68-.276.695-4.214a7.03 7.03 0 0 1 5.835-5.804l.857-.137a5.34 5.34 0 0 0 4.413-4.341 7.034 7.034 0 0 1 5.885-5.738l.743-.111a5.34 5.34 0 0 0 4.452-4.292l.026-.14a7.034 7.034 0 0 1 5.937-5.671l.625-.087a5.343 5.343 0 0 0 4.49-4.245l.055-.274a7.033 7.033 0 0 1 5.992-5.607l.5-.067a5.337 5.337 0 0 0 4.531-4.196l.085-.405a7.034 7.034 0 0 1 6.047-5.545l.373-.045a5.344 5.344 0 0 0 4.574-4.153l1.068-4.865 1.663.364-1.069 4.867a7.046 7.046 0 0 1-6.033 5.477l-.372.045a5.332 5.332 0 0 0-4.584 4.204l-.086.405a7.043 7.043 0 0 1-5.976 5.536l-.5.066a5.33 5.33 0 0 0-4.543 4.251l-.054.273a7.045 7.045 0 0 1-5.924 5.599l-.625.088a5.332 5.332 0 0 0-4.501 4.3l-.026.139a7.044 7.044 0 0 1-5.871 5.662l-.743.111a5.33 5.33 0 0 0-4.462 4.35 7.044 7.044 0 0 1-5.821 5.726l-.858.137a5.329 5.329 0 0 0-4.423 4.4l-.695 4.213" fill="#121E25"/></g></svg>