<svg width="102" height="104" viewBox="0 0 102 104" xmlns="http://www.w3.org/2000/svg"><g fill-rule="nonzero" fill="none"><path d="M5.288 52.45C-4.796 36.488-.028 15.37 15.936 5.289 31.9-4.796 53.016-.028 63.099 15.936c10.084 15.964 5.316 37.08-10.65 47.163-15.962 10.083-37.077 5.316-47.16-10.65" fill="#F5BD7B"/><path d="M55.29 1.43c9.09 2.053 16.836 7.52 21.81 15.4 10.274 16.262 5.4 37.849-10.863 48.122a34.677 34.677 0 0 1-18.572 5.38h-.001c-11.581 0-22.921-5.75-29.55-16.245-3.918-6.203-5.762-13.341-5.334-20.642l.998.059c-.416 7.09 1.376 14.024 5.182 20.049 9.978 15.797 30.945 20.53 46.743 10.553 15.796-9.977 20.53-30.946 10.553-46.742C71.423 9.712 63.899 4.4 55.07 2.407 46.243.415 37.166 1.977 29.514 6.81l-.535-.846C36.857.989 46.199-.621 55.289 1.43Zm15.863 19.157-.845.534C62.402 8.606 45.788 4.854 33.27 12.759c-12.517 7.906-16.268 24.52-8.362 37.037 5.97 9.454 17.33 14.252 28.267 11.934l.207.979c-1.67.353-3.369.55-5.074.59l-.64.007-.455-.003c-9.257-.153-18.077-4.943-23.15-12.973-8.2-12.983-4.31-30.216 8.674-38.417 12.98-8.198 30.215-4.31 38.416 8.674Zm-9.285 5.865c4.966 7.863 2.61 18.3-5.254 23.266l-.533-.846c7.396-4.671 9.613-14.49 4.94-21.886-4.67-7.396-14.491-9.612-21.885-4.941-7.397 4.67-9.614 14.489-4.942 21.886l-.845.534c-4.966-7.863-2.61-18.3 5.253-23.266 7.864-4.966 18.3-2.61 23.266 5.253Zm-6.876 4.343c2.57 4.07 1.35 9.476-2.721 12.047a8.677 8.677 0 0 1-4.65 1.347v-.001a8.737 8.737 0 0 1-7.397-4.066c-2.571-4.071-1.351-9.476 2.72-12.047 4.072-2.572 9.476-1.352 12.048 2.72Zm-11.514-1.876c-3.605 2.278-4.685 7.064-2.408 10.669 2.277 3.605 7.062 4.685 10.668 2.408 3.605-2.276 4.686-7.062 2.408-10.667-2.277-3.606-7.063-4.688-10.668-2.41Z" fill="#121E25"/><path d="m90.373 101.574 5.964.868 3.734-4.731-2.23-5.6-5.964-.868-3.734 4.73 2.23 5.6Zm6.39 1.94-7.106-1.034L87 95.808l4.449-5.637 7.107 1.034 2.658 6.672-4.45 5.637Z" fill="#736AA1"/></g></svg>