<svg width="44" height="44" viewBox="0 0 44 44" fill="none" xmlns="http://www.w3.org/2000/svg"><path d="M22 43c11.598 0 21-9.402 21-21S33.598 1 22 1 1 10.402 1 22s9.402 21 21 21Z" stroke="#4B4B4B"/><path d="M21.636 16.456c.395.582.594 1.275.594 2.084 0 .833-.199 1.504-.599 2.01-.226.284-.556.544-.992.778.663.255 1.161.657 1.5 1.206.337.548.505 1.216.505 2.001 0 .808-.191 1.536-.578 2.176a3.732 3.732 0 0 1-.918 1.075 3.49 3.49 0 0 1-1.466.686 8.523 8.523 0 0 1-1.834.184H12V15h6.272c1.583.026 2.703.51 3.364 1.456Zm-7.048.916v3.014h3.155c.562 0 1.02-.114 1.374-.34.349-.225.527-.626.527-1.198 0-.637-.233-1.057-.698-1.262-.401-.142-.912-.214-1.533-.214h-2.825Zm0 5.272v3.641h3.15c.563 0 1.002-.08 1.315-.24.57-.297.853-.865.853-1.703 0-.713-.273-1.2-.825-1.466-.31-.148-.742-.227-1.298-.232h-3.195Zm15.902-3.88c.671.315 1.223.813 1.657 1.493.397.6.651 1.296.767 2.088.067.464.096 1.132.083 2.004h-6.991c.041 1.014.373 1.724 1.004 2.13.384.255.845.38 1.385.38.569 0 1.035-.153 1.392-.462.196-.167.368-.398.517-.695h2.561c-.067.599-.377 1.207-.93 1.827-.858.98-2.062 1.471-3.609 1.471a5.058 5.058 0 0 1-3.379-1.242c-.98-.828-1.465-2.177-1.465-4.042 0-1.75.44-3.091 1.32-4.026.882-.931 2.026-1.4 3.431-1.4.835 0 1.589.157 2.257.474Zm-3.753 2.28c-.354.385-.578.907-.669 1.563h4.324c-.045-.7-.27-1.231-.667-1.595-.403-.362-.899-.544-1.49-.544-.643 0-1.144.192-1.498.577v-.001Zm-1.318-3.707h5.561v-1.699h-5.56v1.699h-.001Z" fill="#4B4B4B"/></svg>