<svg width="92" height="38" viewBox="0 0 92 38" fill="none" xmlns="http://www.w3.org/2000/svg"><g clip-path="url(#a)"><path d="M1.417 35.167A1.416 1.416 0 1 1 1.418 38a1.416 1.416 0 0 1-.001-2.833Zm1.409-10.254a1.416 1.416 0 1 1-2.816.295 1.416 1.416 0 0 1 2.816-.295Zm0-11.524a1.416 1.416 0 1 1-2.816.295 1.416 1.416 0 0 1 2.816-.295Zm0-11.524a1.418 1.418 0 1 1-2.82.293 1.418 1.418 0 0 1 2.82-.293Zm8.655 33.302a1.416 1.416 0 1 1 0 2.832 1.416 1.416 0 0 1 0-2.832Zm1.409-10.254a1.417 1.417 0 1 1-2.82.294 1.417 1.417 0 0 1 2.82-.294Zm0-11.524a1.417 1.417 0 1 1-2.82.294 1.417 1.417 0 0 1 2.82-.294Zm0-11.524a1.415 1.415 0 1 1-2.815.293 1.415 1.415 0 0 1 2.815-.293Zm9.305 33.302a1.417 1.417 0 1 1 0 2.833 1.417 1.417 0 0 1 0-2.833Zm1.409-10.254a1.417 1.417 0 1 1-2.82.294 1.417 1.417 0 0 1 2.82-.294Zm0-11.524a1.417 1.417 0 1 1-2.82.294 1.417 1.417 0 0 1 2.82-.294Zm0-11.524a1.415 1.415 0 1 1-2.815.293 1.415 1.415 0 0 1 2.815-.293Zm8.654 33.302A1.416 1.416 0 1 1 32.259 38a1.416 1.416 0 0 1-.001-2.833Zm1.409-10.254a1.416 1.416 0 1 1-2.817.294 1.416 1.416 0 0 1 2.817-.294Zm0-11.524a1.417 1.417 0 0 1-2.818.294 1.416 1.416 0 1 1 2.818-.294Zm0-11.524a1.416 1.416 0 1 1-2.81.364 1.416 1.416 0 0 1 2.81-.364Zm7.457 33.302a1.416 1.416 0 1 1 0 2.832 1.416 1.416 0 0 1 0-2.832Zm1.409-10.254a1.42 1.42 0 0 1-1.263 1.556 1.419 1.419 0 0 1-1.247-2.303 1.418 1.418 0 0 1 2.51.747Zm0-11.524a1.42 1.42 0 0 1-1.263 1.556 1.419 1.419 0 0 1-1.247-2.303 1.418 1.418 0 0 1 2.51.747Zm0-11.524a1.419 1.419 0 1 1-2.823.293 1.419 1.419 0 0 1 2.823-.293Zm7.884 33.302a1.417 1.417 0 1 1 0 2.834 1.417 1.417 0 0 1 0-2.834Zm1.409-10.254a1.415 1.415 0 1 1-2.815.295 1.415 1.415 0 0 1 2.815-.295Zm0-11.524a1.415 1.415 0 1 1-2.815.295 1.415 1.415 0 0 1 2.815-.295Zm0-11.524a1.418 1.418 0 1 1-2.82.293 1.418 1.418 0 0 1 2.82-.293Zm8.655 33.302a1.416 1.416 0 1 1 0 2.832 1.416 1.416 0 0 1 0-2.832Zm1.409-10.254a1.417 1.417 0 1 1-2.82.294 1.417 1.417 0 0 1 2.82-.294Zm0-11.524a1.417 1.417 0 1 1-2.819.294 1.417 1.417 0 0 1 2.819-.294Zm0-11.524a1.415 1.415 0 1 1-2.815.293 1.415 1.415 0 0 1 2.815-.293Zm9.305 33.302a1.417 1.417 0 1 1 0 2.833 1.417 1.417 0 0 1 0-2.833Zm1.409-10.254a1.417 1.417 0 1 1-2.82.294 1.417 1.417 0 0 1 2.82-.294Zm0-11.524a1.417 1.417 0 1 1-2.82.294 1.417 1.417 0 0 1 2.82-.294Zm0-11.524a1.416 1.416 0 1 1-2.817.293 1.416 1.416 0 0 1 2.817-.293Zm8.654 33.302a1.417 1.417 0 1 1 0 2.834 1.417 1.417 0 0 1 0-2.834Zm1.409-10.254a1.417 1.417 0 1 1-2.819.294 1.417 1.417 0 0 1 2.819-.294Zm0-11.524a1.416 1.416 0 1 1-2.818.294 1.416 1.416 0 1 1 2.818-.294Zm0-11.524a1.416 1.416 0 1 1-2.81.364 1.416 1.416 0 0 1 2.81-.364Zm7.457 33.302a1.416 1.416 0 1 1 0 2.832 1.416 1.416 0 0 1 0-2.832Zm1.409-10.254a1.42 1.42 0 0 1-1.263 1.556 1.419 1.419 0 0 1-1.247-2.303 1.418 1.418 0 0 1 2.51.747Zm0-11.524a1.42 1.42 0 0 1-1.263 1.556 1.419 1.419 0 0 1-1.247-2.303 1.418 1.418 0 0 1 2.51.747Zm0-11.524a1.418 1.418 0 1 1-2.822.293 1.418 1.418 0 0 1 2.822-.293" fill="#121E25"/></g><defs><clipPath id="a"><path fill="#fff" d="M0 0h92v38H0z"/></clipPath></defs></svg>