<svg width="96" height="87" viewBox="0 0 96 87" fill="none" xmlns="http://www.w3.org/2000/svg"><path d="M31.5 0 63 54H0L31.5 0Z" fill="#FF4D4D"/><path fill-rule="evenodd" clip-rule="evenodd" d="M32 54.004C32 36.88 45.88 23 63.004 23c17.123 0 31.004 13.88 31.004 31.004 0 17.123-13.881 31.004-31.004 31.004S32 71.127 32 54.004ZM63.004 22C45.329 22 31 36.329 31 54.004c0 17.675 14.329 32.004 32.004 32.004 17.675 0 32.004-14.329 32.004-32.004C95.008 36.329 80.679 22 63.004 22Zm0 6.907c-13.86 0-25.097 11.236-25.097 25.097 0 13.86 11.236 25.096 25.097 25.096 13.86 0 25.097-11.236 25.097-25.096 0-13.861-11.236-25.097-25.097-25.097ZM36.907 54.004c0-14.413 11.684-26.097 26.097-26.097 14.413 0 26.097 11.684 26.097 26.097 0 14.413-11.684 26.096-26.097 26.096-14.413 0-26.097-11.683-26.097-26.096Zm6.907 0c0-10.598 8.591-19.19 19.19-19.19 10.598 0 19.19 8.592 19.19 19.19 0 10.599-8.592 19.19-19.19 19.19-10.599 0-19.19-8.591-19.19-19.19Zm19.19-20.19c-11.15 0-20.19 9.04-20.19 20.19 0 11.15 9.04 20.19 20.19 20.19 11.15 0 20.19-9.04 20.19-20.19 0-11.15-9.04-20.19-20.19-20.19ZM49.72 54.004c0-7.336 5.947-13.283 13.283-13.283 7.336 0 13.283 5.947 13.283 13.283 0 7.336-5.947 13.283-13.283 13.283-7.336 0-13.283-5.947-13.283-13.283ZM63.004 39.72c-7.889 0-14.283 6.395-14.283 14.283s6.395 14.283 14.283 14.283 14.283-6.395 14.283-14.283c0-7.889-6.395-14.283-14.283-14.283Z" fill="#4B4B4B"/></svg>