<svg width="80" height="78" viewBox="0 0 80 78" xmlns="http://www.w3.org/2000/svg"><path d="M79.74 43.116c0 18.882-15.308 34.189-34.19 34.189-18.881 0-34.188-15.307-34.188-34.19 0-18.88 15.307-34.187 34.189-34.187 18.88 0 34.189 15.307 34.189 34.188" fill="#82CCDD"/><path d="M34.884 27.151c-4.264 0-7.733 3.468-7.733 7.732 0 4.265 3.469 7.733 7.733 7.733 4.264 0 7.733-3.468 7.733-7.733 0-4.264-3.47-7.732-7.733-7.732Zm0 16.465c-4.815 0-8.733-3.918-8.733-8.733s3.918-8.732 8.733-8.732 8.733 3.917 8.733 8.732c0 4.815-3.918 8.733-8.733 8.733Z" fill="#121E25"/><path d="M34.884 51.749c-9.3 0-16.866-7.566-16.866-16.866s7.566-16.865 16.866-16.865v1c-8.748 0-15.866 7.117-15.866 15.865 0 8.749 7.118 15.866 15.866 15.866 8.75 0 15.866-7.117 15.866-15.866h1c0 9.3-7.566 16.866-16.866 16.866Z" fill="#121E25"/><path d="M34.884 62.732c-15.355 0-27.848-12.494-27.848-27.85h1c0 14.806 12.044 26.85 26.848 26.85 14.804 0 26.848-12.044 26.848-26.85 0-11.181-7.043-21.302-17.525-25.184l.347-.938c10.873 4.026 18.178 14.524 18.178 26.123 0 15.355-12.492 27.849-27.848 27.849Z" fill="#121E25"/><path d="M34.884 69.767C15.649 69.767 0 54.118 0 34.883S15.649 0 34.884 0s34.884 15.648 34.884 34.883c0 7.337-2.252 14.357-6.513 20.301l-.812-.582c4.137-5.774 6.325-12.592 6.325-19.719C68.768 16.2 53.568 1 34.884 1S1 16.2 1 34.883c0 18.684 15.2 33.884 33.884 33.884v1Z" fill="#121E25"/></svg>