<svg width="96" height="96" viewBox="0 0 96 96" fill="none" xmlns="http://www.w3.org/2000/svg"><path fill-rule="evenodd" clip-rule="evenodd" d="M96 48C96 21.49 74.51 0 48 0S0 21.49 0 48s21.49 48 48 48 48-21.49 48-48Zm-72 0c0-13.255 10.745-24 24-24s24 10.745 24 24-10.745 24-24 24-24-10.745-24-24Zm-11.5 1c0-19.606 15.894-35.5 35.5-35.5S83.5 29.394 83.5 49 67.606 84.5 48 84.5 12.5 68.606 12.5 49ZM48 12.5c-20.158 0-36.5 16.342-36.5 36.5S27.842 85.5 48 85.5 84.5 69.158 84.5 49 68.158 12.5 48 12.5Z" fill="#7158E2"/></svg>