<svg width="112" height="112" viewBox="0 0 112 112" xmlns="http://www.w3.org/2000/svg"><path d="M76.683 100.983c3.018 0 5.803 1.14 7.898 3.183a55.677 55.677 0 0 1-7.179 3.599 4.582 4.582 0 0 0-.719-.056c-1.374 0-2.63.578-3.509 1.606A55.883 55.883 0 0 1 56 112c-.73 0-1.455-.014-2.178-.042a11.932 11.932 0 0 1-.565-.736l-.602-.85a4.58 4.58 0 0 0-3.783-1.96 4.578 4.578 0 0 0-3.781 1.957l-.354.498a55.578 55.578 0 0 1-7.576-2.115 4.604 4.604 0 0 0 1.962-1.59l.476-.675c2.158-3.049 5.539-4.798 9.273-4.798s7.114 1.747 9.272 4.796l.602.856a4.588 4.588 0 0 0 3.783 1.955 4.58 4.58 0 0 0 3.782-1.96l1.102-1.557c2.158-3.049 5.536-4.796 9.27-4.796Zm-46.017 4.927.05.07a55.994 55.994 0 0 1-7.322-4.446c2.898.448 5.473 1.985 7.272 4.376Zm73.04-27.359c1.158 0 2.282.168 3.347.49a55.428 55.428 0 0 1-3.306 6.236 4.574 4.574 0 0 0-3.82 1.955l-.918 1.295c-2.157 3.047-5.536 4.794-9.272 4.794-3.734 0-7.113-1.747-9.27-4.794a4.579 4.579 0 0 0-3.784-1.956 4.58 4.58 0 0 0-3.78 1.956L71.8 90.085c-2.158 3.05-5.536 4.796-9.27 4.796-3.737 0-7.115-1.747-9.273-4.796l-.604-.854a4.576 4.576 0 0 0-3.781-1.954 4.576 4.576 0 0 0-3.781 1.954l-.48.677c-2.156 3.05-5.536 4.796-9.27 4.796-3.737 0-7.115-1.745-9.271-4.793l-.688-.975a4.581 4.581 0 0 0-3.78-1.954 4.584 4.584 0 0 0-3.784 1.956l-.354.5a11.355 11.355 0 0 1-3.686 3.348 55.822 55.822 0 0 1-4.215-5.477 4.579 4.579 0 0 0 2.412-1.755l.354-.498c2.158-3.051 5.536-4.798 9.27-4.798 3.735 0 7.115 1.747 9.273 4.794l.687.974a4.576 4.576 0 0 0 3.781 1.954 4.576 4.576 0 0 0 3.781-1.954l.478-.678c2.158-3.05 5.539-4.797 9.273-4.797s7.114 1.747 9.272 4.797l.602.853a4.58 4.58 0 0 0 3.783 1.954 4.576 4.576 0 0 0 3.782-1.954l1.102-1.558c2.158-3.05 5.536-4.8 9.27-4.8 3.735 0 7.115 1.75 9.273 4.8a4.58 4.58 0 0 0 3.78 1.956 4.581 4.581 0 0 0 3.784-1.956l.915-1.296c2.156-3.049 5.537-4.796 9.27-4.796Zm0-21.138c3.111 0 5.975 1.213 8.092 3.38a55.844 55.844 0 0 1-1.522 9.048 11.499 11.499 0 0 1-1.02-1.248l-1.767-2.5a4.577 4.577 0 0 0-3.783-1.954c-1.524 0-2.9.71-3.781 1.955l-.916 1.293c-2.155 3.049-5.536 4.8-9.272 4.8-3.734 0-7.115-1.751-9.27-4.8a4.577 4.577 0 0 0-3.784-1.954c-1.523 0-2.9.711-3.78 1.954l-1.103 1.56c-2.156 3.049-5.536 4.796-9.27 4.796-3.737 0-7.117-1.747-9.273-4.796l-.602-.852a4.584 4.584 0 0 0-3.783-1.957 4.578 4.578 0 0 0-3.781 1.957l-.48.675c-2.156 3.049-5.534 4.8-9.27 4.8-3.737 0-7.115-1.751-9.273-4.8l-.686-.97a4.57 4.57 0 0 0-3.78-1.955c-1.524 0-2.903.71-3.784 1.955l-.352.5c-2.158 3.05-5.538 4.798-9.272 4.798-2.202 0-4.281-.608-6.059-1.732A55.751 55.751 0 0 1 .181 60.538c1.546.815 2.9 1.998 3.96 3.495l.268.379a4.582 4.582 0 0 0 3.785 1.958 4.58 4.58 0 0 0 3.78-1.952l.357-.503c2.156-3.049 5.534-4.796 9.268-4.796 3.735 0 7.115 1.747 9.273 4.796l.687.972a4.581 4.581 0 0 0 3.781 1.955 4.581 4.581 0 0 0 3.781-1.955l.48-.677c2.156-3.047 5.537-4.796 9.27-4.796 3.735 0 7.115 1.747 9.273 4.796l.602.854a4.582 4.582 0 0 0 3.783 1.955c1.522 0 2.9-.712 3.782-1.957l1.102-1.558c2.158-3.048 5.536-4.796 9.27-4.796 3.737 0 7.117 1.748 9.273 4.796a4.579 4.579 0 0 0 3.78 1.955 4.58 4.58 0 0 0 3.784-1.955l.915-1.293c2.156-3.049 5.537-4.798 9.27-4.798Zm0-21.136c1.844 0 3.6.425 5.166 1.223a55.699 55.699 0 0 1 2.807 12.47 11.403 11.403 0 0 1-2.42-2.513l-1.77-2.502a4.585 4.585 0 0 0-3.783-1.954c-1.524 0-2.9.714-3.78 1.954l-.917 1.296c-2.157 3.049-5.536 4.796-9.272 4.796-3.734 0-7.113-1.747-9.27-4.796a4.579 4.579 0 0 0-3.784-1.957 4.58 4.58 0 0 0-3.78 1.957L71.8 47.809c-2.158 3.049-5.536 4.798-9.27 4.798-3.737 0-7.115-1.75-9.273-4.798l-.604-.852a4.576 4.576 0 0 0-3.781-1.955 4.576 4.576 0 0 0-3.781 1.955l-.48.677c-2.156 3.049-5.536 4.796-9.27 4.796-3.737 0-7.115-1.747-9.271-4.796l-.69-.974a4.578 4.578 0 0 0-3.779-1.953 4.588 4.588 0 0 0-3.783 1.955l-.352.5c-2.158 3.049-5.538 4.798-9.272 4.798-2.945 0-5.67-1.088-7.749-3.043.354-2.81.916-5.555 1.671-8.219a11.449 11.449 0 0 1 2.024 2.197l.269.378a4.584 4.584 0 0 0 3.785 1.96 4.576 4.576 0 0 0 3.78-1.954l.355-.5c2.158-3.049 5.536-4.798 9.27-4.798 3.735 0 7.115 1.75 9.273 4.796l.687.972a4.57 4.57 0 0 0 3.781 1.955 4.57 4.57 0 0 0 3.781-1.955l.48-.677c2.156-3.049 5.537-4.796 9.27-4.796 3.735 0 7.113 1.747 9.273 4.796l.602.852a4.576 4.576 0 0 0 3.783 1.957 4.573 4.573 0 0 0 3.782-1.957l1.102-1.556c2.158-3.049 5.536-4.798 9.27-4.798 3.737 0 7.115 1.75 9.273 4.798a4.584 4.584 0 0 0 3.78 1.955 4.588 4.588 0 0 0 3.784-1.955l.915-1.295c2.156-3.05 5.537-4.796 9.27-4.796ZM76.683 16.432c3.737 0 7.115 1.749 9.273 4.798a4.584 4.584 0 0 0 3.78 1.954 4.588 4.588 0 0 0 3.784-1.954l.915-1.296a11.495 11.495 0 0 1 2.267-2.395 56.139 56.139 0 0 1 4.33 5.167c-.421.3-.794.673-1.105 1.113l-.918 1.294c-2.157 3.048-5.536 4.798-9.272 4.798-3.734 0-7.113-1.75-9.27-4.798a4.579 4.579 0 0 0-3.784-1.957 4.58 4.58 0 0 0-3.78 1.957l-1.103 1.56c-2.158 3.048-5.536 4.795-9.27 4.795-3.737 0-7.115-1.747-9.273-4.795l-.604-.855a4.578 4.578 0 0 0-3.781-1.956 4.578 4.578 0 0 0-3.781 1.956l-.48.678c-2.156 3.048-5.536 4.796-9.27 4.796-3.737 0-7.115-1.748-9.271-4.796l-.688-.975a4.577 4.577 0 0 0-3.78-1.95 4.58 4.58 0 0 0-3.784 1.952l-.352.503c-2.158 3.049-5.538 4.796-9.272 4.796-.725 0-1.436-.066-2.128-.194a55.736 55.736 0 0 1 4.268-7.049 4.596 4.596 0 0 0 1.64-1.438l.355-.5c2.158-3.05 5.536-4.798 9.27-4.798 3.735 0 7.115 1.749 9.273 4.796l.687.974a4.576 4.576 0 0 0 3.781 1.954c1.524 0 2.9-.711 3.783-1.954l.478-.677c2.156-3.05 5.537-4.798 9.27-4.798 3.735 0 7.113 1.749 9.273 4.796l.602.854a4.581 4.581 0 0 0 3.783 1.956 4.578 4.578 0 0 0 3.782-1.956l1.102-1.558c2.158-3.049 5.536-4.798 9.27-4.798ZM56 0c.517 0 1.032.007 1.545.02.209.25.409.508.6.777l.601.852a4.581 4.581 0 0 0 3.783 1.957 4.578 4.578 0 0 0 3.782-1.957l.438-.618a55.59 55.59 0 0 1 7.17 1.897 4.668 4.668 0 0 0-1.017 1.046L71.8 5.534c-2.158 3.05-5.536 4.798-9.27 4.798-3.737 0-7.115-1.749-9.273-4.798l-.604-.852a4.573 4.573 0 0 0-3.781-1.957A4.576 4.576 0 0 0 45.09 4.68l-.48.677c-2.156 3.05-5.536 4.798-9.27 4.798-2.754 0-5.313-.95-7.331-2.67C36.245 2.726 45.804 0 56 0Z" fill="#82CCDD" fill-rule="nonzero"/></svg>