<svg width="72" height="72" viewBox="0 0 72 72" xmlns="http://www.w3.org/2000/svg"><path d="M11.256 9.851 36.011 72H36c-1.103 0-2.194-.05-3.27-.147L8.975 12.214a36.223 36.223 0 0 1 2.28-2.363Zm6.023-4.607 26.273 65.963a35.89 35.89 0 0 1-3.019.51L14.736 6.948a36.065 36.065 0 0 1 2.543-1.704Zm-13 13.719c.51-.947 1.06-1.868 1.65-2.762l21.846 54.855a35.721 35.721 0 0 1-3.642-1.058L4.01 19.473ZM23.882 2.09l26.633 66.864c-.91.402-1.841.767-2.79 1.093L21.106 3.216a35.763 35.763 0 0 1 2.777-1.126ZM1.65 25.191l16.836 42.27a36.051 36.051 0 0 1-4.368-2.872L.453 30.275c.278-1.739.68-3.437 1.198-5.084ZM31.043.34l25.874 64.964a36.047 36.047 0 0 1-2.557 1.67L28.036.883c.988-.222 1.99-.405 3.007-.544ZM36 0a36.5 36.5 0 0 1 2.809.108L62.715 60.13a36.224 36.224 0 0 1-2.297 2.323L35.544.003Zm7.733.832c1.23.27 2.437.602 3.617.994l20.387 51.182a35.995 35.995 0 0 1-1.945 3.209ZM.505 42.046l5.56 13.958a35.792 35.792 0 0 1-5.56-13.958ZM52.944 4.228a36.02 36.02 0 0 1 4.298 2.704L71.413 42.51a35.743 35.743 0 0 1-1.265 4.919ZM64.91 14.543a35.811 35.811 0 0 1 6.837 17.167Z" fill="#82CCDD" fill-rule="nonzero"/></svg>